<svg xmlns="http://www.w3.org/2000/svg" viewBox="0 0 91.36 91.36"><title>Spotify logo</title><path d="M512,466.32A45.68,45.68,0,1,0,557.68,512,45.68,45.68,0,0,0,512,466.32Zm20.95,65.89a2.85,2.85,0,0,1-3.91.95c-10.73-6.56-24.23-8-40.13-4.4a2.85,2.85,0,1,1-1.27-5.55c17.4-4,32.33-2.27,44.37,5.09A2.85,2.85,0,0,1,532.95,532.21Zm5.59-12.44a3.56,3.56,0,0,1-4.9,1.17c-12.28-7.55-31-9.73-45.52-5.32a3.56,3.56,0,1,1-2.07-6.81c16.59-5,37.22-2.6,51.31,6.07A3.56,3.56,0,0,1,538.54,519.77Zm.48-13c-14.72-8.74-39-9.55-53.07-5.28a4.27,4.27,0,1,1-2.48-8.18c16.14-4.9,43-4,59.91,6.11a4.27,4.27,0,0,1-4.36,7.35Z" transform="translate(-466.32 -466.32)" style="fill:#1ed760"/></svg>